<svg xmlns="http://www.w3.org/2000/svg" width="1200" height="430" viewBox="0 0 1200 430" role="img" aria-label="MrGray17 neo brutalist profile hero">
  <rect width="1200" height="430" fill="#FFF7E6"/>

  <rect x="42" y="44" width="1110" height="326" fill="#111111"/>
  <rect x="26" y="28" width="1110" height="326" fill="#FFFFFF" stroke="#111111" stroke-width="6"/>

  <rect x="26" y="28" width="1110" height="72" fill="#8EF6D0" stroke="#111111" stroke-width="6"/>
  <text x="58" y="76" font-family="Arial Black, Arial, sans-serif" font-size="30" font-weight="900" fill="#111111">SOFTWARE ENGINEER // MRGRAY17</text>
  <circle cx="1070" cy="63" r="15" fill="#FF6B9A" stroke="#111111" stroke-width="5">
    <animate attributeName="fill" values="#FF6B9A;#FFD93D;#FF6B9A" dur="2.4s" repeatCount="indefinite"/>
  </circle>

  <text x="58" y="177" font-family="Arial Black, Arial, sans-serif" font-size="68" font-weight="900" fill="#111111">I BUILD SYSTEMS</text>
  <text x="58" y="235" font-family="Arial Black, Arial, sans-serif" font-size="68" font-weight="900" fill="#111111">THAT HAVE TO WORK.</text>

  <rect x="58" y="272" width="232" height="56" fill="#FFD93D" stroke="#111111" stroke-width="5"/>
  <text x="78" y="309" font-family="Arial Black, Arial, sans-serif" font-size="22" font-weight="900" fill="#111111">BACKEND</text>

  <rect x="309" y="272" width="232" height="56" fill="#6C63FF" stroke="#111111" stroke-width="5"/>
  <text x="337" y="309" font-family="Arial Black, Arial, sans-serif" font-size="22" font-weight="900" fill="#FFFFFF">SYSTEMS</text>

  <rect x="560" y="272" width="232" height="56" fill="#FF6B9A" stroke="#111111" stroke-width="5"/>
  <text x="595" y="309" font-family="Arial Black, Arial, sans-serif" font-size="22" font-weight="900" fill="#111111">AI / ML</text>

  <rect x="811" y="272" width="286" height="56" fill="#8EF6D0" stroke="#111111" stroke-width="5"/>
  <text x="840" y="309" font-family="Arial Black, Arial, sans-serif" font-size="22" font-weight="900" fill="#111111">DISTRIBUTED</text>

  <rect x="812" y="130" width="268" height="82" fill="#FFD93D" stroke="#111111" stroke-width="5" transform="rotate(2 946 171)"/>
  <text x="839" y="165" font-family="Arial Black, Arial, sans-serif" font-size="18" font-weight="900" fill="#111111" transform="rotate(2 946 171)">CURRENTLY:</text>
  <text x="839" y="194" font-family="Arial Black, Arial, sans-serif" font-size="25" font-weight="900" fill="#111111" transform="rotate(2 946 171)">RATE LIMITER</text>

  <text x="28" y="405" font-family="Arial, sans-serif" font-size="18" font-weight="700" fill="#111111">BUILD → BREAK → UNDERSTAND → REBUILD</text>
</svg>