<svg xmlns="http://www.w3.org/2000/svg" width="700" height="930" viewBox="0 0 700 930" role="img" aria-label="Mobile technology map">
<style>.title{font-family:-apple-system,BlinkMacSystemFont,"Segoe UI",Helvetica,Arial,sans-serif;font-weight:900;letter-spacing:-2px}.label{font-family:-apple-system,BlinkMacSystemFont,"Segoe UI",Helvetica,Arial,sans-serif;font-weight:800;letter-spacing:.8px}.tech{font-family:-apple-system,BlinkMacSystemFont,"Segoe UI",Helvetica,Arial,sans-serif;font-weight:850;letter-spacing:-.4px}.role{font-family:-apple-system,BlinkMacSystemFont,"Segoe UI",Helvetica,Arial,sans-serif;font-weight:500}</style>
<defs><linearGradient id="glass" x1="0" y1="0" x2="1" y2="1"><stop offset="0" stop-color="#FFFFFF" stop-opacity=".88"/><stop offset="1" stop-color="#FFFFFF" stop-opacity=".38"/></linearGradient></defs>
<rect width="700" height="930" fill="#E9E2FF"/><circle cx="620" cy="90" r="105" fill="#55D6FF" opacity=".48"/><circle cx="80" cy="840" r="120" fill="#B6FF4A" opacity=".34"/><rect x="22" y="22" width="656" height="886" fill="none" stroke="#111" stroke-width="5"/>
<text class="label" x="42" y="68" font-size="17" fill="#111">04 / BACKSTAGE</text><text class="title" x="42" y="146" font-size="64" textLength="520" lengthAdjust="spacingAndGlyphs" fill="#111">TECHNOLOGY MAP</text><text class="role" x="44" y="188" font-size="21" fill="#111">Tools behind the projects, connected by role.</text>

<text class="label" x="44" y="244" font-size="15" fill="#111">PRODUCT PATH</text>
<g stroke="#111" stroke-width="4" fill="url(#glass)"><rect x="44" y="266" width="260" height="112" rx="18"/><rect x="396" y="266" width="260" height="112" rx="18"/><rect x="44" y="436" width="260" height="112" rx="18"/><rect x="396" y="436" width="260" height="112" rx="18"/></g>
<g fill="#111"><text class="tech" x="66" y="314" font-size="25">React + Vite</text><text class="role" x="66" y="348" font-size="17">Interface · MapLibre</text><text class="tech" x="418" y="314" font-size="26">HTTP</text><text class="role" x="418" y="348" font-size="17">Request boundary</text><text class="tech" x="66" y="484" font-size="24">Node + Express</text><text class="role" x="66" y="518" font-size="17">API layer</text><text class="tech" x="418" y="484" font-size="24">PostgreSQL</text><text class="role" x="418" y="518" font-size="17">Persistence</text></g><path d="M304 322 H396 M526 378 V436 M304 492 H396" fill="none" stroke="#111" stroke-width="4"/>

<text class="label" x="44" y="620" font-size="15" fill="#111">AI TOOLING</text>
<g stroke="#111" stroke-width="4" fill="url(#glass)"><rect x="44" y="642" width="260" height="112" rx="18"/><rect x="396" y="642" width="260" height="112" rx="18"/></g>
<g fill="#111"><text class="tech" x="66" y="690" font-size="23">TypeScript + Bun</text><text class="role" x="66" y="724" font-size="17">Tooling runtime · MCP</text><text class="tech" x="418" y="690" font-size="24">LLM context</text><text class="role" x="418" y="724" font-size="17">Model input</text></g><path d="M304 698 H396" fill="none" stroke="#111" stroke-width="4"/>

<rect x="22" y="866" width="656" height="42" fill="#111"/><text class="label" x="44" y="893" font-size="13" fill="#F4F0E8">FOUNDATIONS / C++ · NETWORKING · OPERATING SYSTEMS</text>
</svg>